<?xml version="1.0" encoding="UTF-8"?> <svg xmlns="http://www.w3.org/2000/svg" xmlns:xlink="http://www.w3.org/1999/xlink" width="300" height="300" viewBox="0 0 300 300"> <!--Generated by IJSVG (https://github.com/curthard89/IJSVG)--> <defs> <path d="M68.27,43l5.03752e-08,2.25815e-08c1.00523,0.450609 2.18557,0.00350689 2.64,-1l2.06151e-07,-4.64266e-07c2.13822,-4.81542 -0.0320749,-10.4525 -4.84749,-12.5907c-3.54826,-1.57556 -7.69739,-0.843731 -10.4925,1.85067l-5.57127e-08,5.25487e-08c-0.803532,0.757898 -0.840525,2.02369 -0.0826271,2.82722c0.00087484,0.000927514 0.00175057,0.00185419 0.00262718,0.00278003l-1.42147e-06,-1.38856e-06c1.86568,1.8225 3.89788,3.46633 6.07,4.91l-7.05166e-07,-5.14303e-07c2.10834,1.53769 4.35461,2.87675 6.71,4Z" id="c"></path> <path d="M26.11,50.47l2.47304e-08,-2.37492e-08c-0.796693,0.765084 -2.06276,0.73946 -2.82785,-0.0572338c-0.0040694,-0.00423753 -0.00812011,-0.00849296 -0.012152,-0.0127662l1.10905e-07,1.16527e-07c-3.6362,-3.82053 -3.48678,-9.86541 0.333753,-13.5016c2.78089,-2.64672 6.87633,-3.37093 10.3962,-1.83839l-8.72234e-08,-3.71189e-08c1.01636,0.432525 1.48966,1.60708 1.05713,2.62345c-0.00235277,0.00552862 -0.00473044,0.0110466 -0.00713294,0.0165538l-3.91103e-09,8.16782e-09c-1.1257,2.35092 -2.46464,4.59365 -4,6.7l-1.13954e-06,1.7031e-06c-1.45387,2.17288 -3.10774,4.20506 -4.94,6.07Z" id="b"></path> <path d="M62.8686,43.6814c7.61522,7.61522 7.61522,19.9619 0,27.5772c-7.61522,7.61522 -19.9619,7.61522 -27.5772,0c-7.61522,-7.61522 -7.61522,-19.9619 -7.10543e-15,-27.5772c7.61522,-7.61522 19.9619,-7.61522 27.5772,-7.10543e-15" id="a"></path> </defs> <g transform="scale(2.67857)"> <path fill="#E8F4FA" d="M78.4143,27.7157c15.621,15.621 15.621,40.9476 0,56.5685c-15.621,15.621 -40.9476,15.621 -56.5685,0c-15.621,-15.621 -15.621,-40.9476 -7.10543e-15,-56.5685c15.621,-15.621 40.9476,-15.621 56.5685,-7.10543e-15"></path> <path opacity="0.15" fill="#191816" d="M61.6153,85.9393c4.68629,0.585786 4.68629,1.53553 0,2.12132c-4.68629,0.585786 -12.2843,0.585786 -16.9706,0c-4.68629,-0.585786 -4.68629,-1.53553 0,-2.12132c4.68629,-0.585786 12.2843,-0.585786 16.9706,0"></path> <path fill="#87898C" stroke="#191816" stroke-linecap="round" stroke-linejoin="round" stroke-width="1" d="M40,81.34l1.0562e-07,-5.25153e-08c-0.741795,0.368826 -1.64213,0.0664745 -2.01096,-0.67532c-0.177009,-0.356006 -0.205439,-0.767723 -0.0790445,-1.14468l1.66,-4.91l2.18254e-08,-6.19842e-08c0.276142,-0.784244 1.13576,-1.19614 1.92,-0.92c0.784244,0.276142 1.19614,1.13576 0.92,1.92c-4.96706e-09,1.41064e-08 -9.93411e-09,2.82129e-08 -1.49012e-08,4.23193e-08l-1.66,4.91l2.12431e-08,-5.66599e-08c-0.134905,0.359821 -0.403612,0.653608 -0.75,0.82Z"></path> <path fill="#87898C" stroke="#191816" stroke-linecap="round" stroke-linejoin="round" stroke-width="1" d="M65.77,76.8l-9.81305e-08,-1.05208e-08c0.823707,0.0883116 1.56304,-0.507844 1.65135,-1.33155c0.0422665,-0.394231 -0.0732716,-0.789161 -0.321355,-1.09845l-3.23,-4l-8.10012e-09,-1.13722e-08c-0.480613,-0.674761 -1.41723,-0.832149 -2.09199,-0.351536c-0.674761,0.480613 -0.832149,1.41723 -0.351536,2.09199c0.0320936,0.0450581 0.0666552,0.0883063 0.103526,0.129546l3.23,4l7.80451e-08,9.80777e-08c0.249165,0.313121 0.612431,0.514536 1.01,0.56Z"></path> <g transform="matrix(1,0,0,1,-22.44,33.04)"> <use fill="#FF6242" transform="matrix(0.860386,-0.509642,0.509642,0.860386,0,0)" xlink:href="#a"></use> </g> <path fill="#FF866E" d="M46.3,41.71l-1.61576e-06,2.84931e-07c9.93679,-1.7523 19.5681,4.3692 22.2,14.11c0,-0.58 -0.12,-1.16 -0.22,-1.74l7.27076e-07,4.12511e-06c-1.86948,-10.6066 -11.9834,-17.6895 -22.59,-15.82c-10.6066,1.86948 -17.6895,11.9834 -15.82,22.59c0.106667,0.58 0.236667,1.15 0.39,1.71l-7.8527e-08,-9.26425e-07c-0.852121,-10.0529 6.10468,-19.0959 16.04,-20.85Z"></path> <g transform="matrix(1,0,0,1,-22.44,33.04)"> <use fill="none" stroke="#191816" stroke-linecap="round" stroke-linejoin="round" stroke-width="1" transform="matrix(0.860386,-0.509642,0.509642,0.860386,0,0)" xlink:href="#a"></use> </g> <g transform="matrix(1,0,0,1,-16.91,20.64)"> <path fill="#FFF" stroke="#191816" stroke-linecap="round" stroke-linejoin="round" stroke-width="1" d="M58.6259,47.9241c5.27208,5.27208 5.27208,13.8198 0,19.0919c-5.27208,5.27208 -13.8198,5.27208 -19.0919,1.42109e-14c-5.27208,-5.27208 -5.27208,-13.8198 -7.10543e-15,-19.0919c5.27208,-5.27208 13.8198,-5.27208 19.0919,-7.10543e-15" transform="matrix(0.937646,-0.34759,0.34759,0.937646,0,0)"></path> </g> <use fill="#FFE500" xlink:href="#b"></use> <path fill="#FFF48C" d="M21.13,46.13l-1.98047e-07,-0.000147227c-0.00681651,-5.09758 4.12007,-9.23552 9.21765,-9.24233c1.58738,-0.00212265 3.14848,0.405178 4.53248,1.18255c0.07,-0.13 0.12,-0.26 0.18,-0.37l5.39531e-08,-1.24333e-07c0.439704,-1.01328 -0.0252707,-2.19115 -1.03855,-2.63086c-0.00717486,-0.00311347 -0.0143679,-0.00618482 -0.0215788,-0.00921391l-6.528e-07,-2.86409e-07c-4.82485,-2.11685 -10.4522,0.0784138 -12.5691,4.90326c-0.968648,2.2078 -1.06545,4.70047 -0.270941,6.97674c-0.0200002,-0.266667 -0.0300002,-0.536667 -0.0300002,-0.810001Z"></path> <use fill="none" stroke="#191816" stroke-linecap="round" stroke-linejoin="round" stroke-width="1" xlink:href="#b"></use> <use fill="#FFE500" xlink:href="#c"></use> <path fill="#FFF48C" d="M68.13,33.07l-4.44311e-07,-3.09046e-07c-3.73636,-2.59887 -8.78547,-2.21016 -12.08,0.930001l4.24484e-08,-3.96454e-08c-0.113179,0.105706 -0.210815,0.226909 -0.29,0.36c-0.1,-0.09 -0.19,-0.19 -0.27,-0.27l1.63694e-07,1.72886e-07c-0.759434,-0.802081 -0.724861,-2.06794 0.0772196,-2.82737c0.000925839,-0.000876612 0.00185252,-0.00175234 0.00278003,-0.00262718l-5.75793e-07,5.53283e-07c3.79514,-3.64677 9.828,-3.5265 13.4748,0.268644c1.64782,1.71486 2.5949,3.98387 2.65522,6.36135l7.63953e-08,2.34242e-07c-0.63631,-1.95104 -1.88918,-3.64259 -3.57,-4.82Z"></path> <use fill="none" stroke="#191816" stroke-linecap="round" stroke-linejoin="round" stroke-width="1" xlink:href="#c"></use> <path fill="none" stroke="#191816" stroke-linecap="round" stroke-linejoin="round" stroke-width="1" d="M27.87,66.79l5.08922e-07,2.11712e-06c0.611587,2.54421 2.08942,4.79631 4.18,6.37"></path> <path fill="none" stroke="#191816" stroke-linecap="round" stroke-linejoin="round" stroke-width="1" d="M26.6,71.08l-5.1686e-07,-8.65862e-07c1.37322,2.30047 3.48961,4.06413 6,5"></path> <path fill="none" stroke="#191816" stroke-linecap="round" stroke-linejoin="round" stroke-width="1" d="M72.25,30.53c2,1 3.21,2.93 3.19,6.55"></path> <path fill="none" stroke="#191816" stroke-linecap="round" stroke-linejoin="round" stroke-width="1" d="M72.77,27.71c2.16,0.43 3.89,1.94 4.85,5.43"></path> <path fill="#87898C" stroke="#191816" stroke-linecap="round" stroke-linejoin="round" stroke-width="1" d="M50.54,57.76l1.76094e-10,-8.11248e-10c0.0400517,-0.184518 0.0400517,-0.375482 -3.52181e-10,-0.56l-1.54,-8.86l4.53276e-08,2.61505e-07c-0.143594,-0.828427 -0.931573,-1.38359 -1.76,-1.24c-0.828427,0.143594 -1.38359,0.931573 -1.24,1.76l1.45,8.25l-2.45,3.59l-5.22847e-08,7.47793e-08c-0.474965,0.67931 -0.30931,1.61504 0.37,2.09c0.67931,0.474965 1.61504,0.30931 2.09,-0.37l2.87,-4.09v0l-3.55143e-08,5.1261e-08c0.11074,-0.159841 0.188896,-0.339939 0.23,-0.53Z"></path> <path fill="none" stroke="#00AED9" stroke-linecap="round" stroke-linejoin="round" stroke-width="1" d="M76.63,62.5v-4"></path> <path fill="none" stroke="#00AED9" stroke-linecap="round" stroke-linejoin="round" stroke-width="1" d="M74.63,60.5h4"></path> <path fill="none" stroke="#00AED9" stroke-linecap="round" stroke-linejoin="round" stroke-width="1" d="M53.63,23.5v-2"></path> <path fill="none" stroke="#00AED9" stroke-linecap="round" stroke-linejoin="round" stroke-width="1" d="M52.63,22.5h2"></path> <path fill="none" stroke="#00AED9" stroke-linecap="round" stroke-linejoin="round" stroke-width="1" d="M76.63,49.5v-2"></path> <path fill="none" stroke="#00AED9" stroke-linecap="round" stroke-linejoin="round" stroke-width="1" d="M75.63,48.5h2"></path> <path fill="none" stroke="#00AED9" stroke-linecap="round" stroke-linejoin="round" stroke-width="1" d="M16.63,43.5v-2"></path> <path fill="none" stroke="#00AED9" stroke-linecap="round" stroke-linejoin="round" stroke-width="1" d="M15.63,42.5h2"></path> <path fill="none" stroke="#FFB700" stroke-linecap="round" stroke-linejoin="round" stroke-width="1" d="M83.72,50.78l3.76716e-09,-7.77819e-09c0.120368,-0.248528 0.419417,-0.352423 0.667945,-0.232055c0.101257,0.0490408 0.183014,0.130799 0.232055,0.232055l0.37,0.75l-1.616e-08,-3.48529e-08c0.069967,0.1509 0.214481,0.253581 0.38,0.27l0.83,0.12l8.88832e-10,1.28544e-10c0.273299,0.0395244 0.462811,0.293118 0.423287,0.566417c-0.01626,0.112433 -0.0703229,0.215977 -0.153287,0.293583l-0.6,0.58l-1.29742e-08,1.35866e-08c-0.114458,0.11986 -0.166258,0.286361 -0.14,0.45l0.14,0.82l-5.62581e-09,-3.27675e-08c0.0467268,0.27216 -0.136023,0.530669 -0.408183,0.577396c-0.10633,0.0182557 -0.215713,0.00162949 -0.311817,-0.0473961l-0.75,-0.39l2.58689e-08,1.45161e-08c-0.142856,-0.0801626 -0.317144,-0.0801626 -0.46,-2.90323e-08l-0.74,0.39l7.023e-09,-4.27106e-09c-0.162796,0.0990047 -0.367204,0.0990047 -0.53,8.54212e-09l-1.89897e-08,-1.3351e-08c-0.156726,-0.110189 -0.234859,-0.301613 -0.2,-0.49l0.14,-0.82l8.11438e-09,-4.2394e-08c0.0313837,-0.163966 -0.0211356,-0.332778 -0.14,-0.45l-0.6,-0.58l5.19127e-08,4.93525e-08c-0.140428,-0.133503 -0.191083,-0.33612 -0.13,-0.52l-2.1183e-09,6.27293e-09c0.0602857,-0.178525 0.214095,-0.309263 0.4,-0.34l0.86,-0.16l3.97348e-09,-3.94166e-10c0.165519,-0.0164192 0.310033,-0.1191 0.38,-0.27Z"></path> <path fill="none" stroke="#FF4064" stroke-linecap="round" stroke-linejoin="round" stroke-width="1" d="M19.89,53.78l-1.03272e-08,2.04416e-08c0.0859187,-0.170066 0.259473,-0.278055 0.45,-0.28l1.86387e-08,-3.73035e-11c0.191198,-0.000382627 0.365873,0.108305 0.45,0.28l0.94,1.89l9.76774e-09,2.01837e-08c0.0712763,0.147283 0.208891,0.251424 0.37,0.28l2.1,0.3l4.92274e-08,7.53101e-09c0.186892,0.0285915 0.341673,0.160155 0.4,0.34l1.45868e-09,4.58023e-09c0.0585885,0.183967 0.00826849,0.385247 -0.13,0.52l-1.47,1.47l-1.22532e-08,1.19325e-08c-0.117176,0.114109 -0.169692,0.27916 -0.14,0.44l0.35,2.09l1.63157e-08,7.63539e-08c0.0403682,0.188914 -0.0389688,0.38329 -0.2,0.49l1.51938e-08,-9.00378e-09c-0.160316,0.0950024 -0.359684,0.0950024 -0.52,1.80076e-08l-1.87,-1l1.0568e-08,4.99425e-09c-0.148778,-0.07031 -0.321222,-0.07031 -0.47,-9.9885e-09l-1.87,1l4.13408e-08,-2.38681e-08c-0.163983,0.0946754 -0.366017,0.0946754 -0.53,4.77362e-08l1.51805e-08,1.12494e-08c-0.15283,-0.113254 -0.22993,-0.30215 -0.2,-0.49l0.32,-2.11l2.34568e-08,-1.53152e-07c0.0245791,-0.16048 -0.0272052,-0.32323 -0.14,-0.44l-1.52,-1.47l-1.46466e-08,-1.49505e-08c-0.134247,-0.137033 -0.183967,-0.335913 -0.13,-0.52l-2.61486e-08,7.65797e-08c0.0619286,-0.181366 0.220306,-0.312704 0.41,-0.34l2.09,-0.3l1.01224e-08,-1.67441e-09c0.164171,-0.0271565 0.30543,-0.131242 0.38,-0.28Z"></path> <path fill="none" stroke="#48CF3E" stroke-linecap="round" stroke-linejoin="round" stroke-width="1" d="M42.81,21.06l3.76715e-09,-7.77819e-09c0.120368,-0.248528 0.419417,-0.352423 0.667945,-0.232055c0.101257,0.0490408 0.183014,0.130799 0.232055,0.232055l1.51,3.06l6.75086e-09,1.38316e-08c0.0710897,0.145653 0.209603,0.246731 0.37,0.27l3.38,0.49l4.82611e-08,7.97944e-09c0.185905,0.0307374 0.339714,0.161475 0.4,0.34l1.21162e-08,3.68891e-08c0.0593902,0.18082 0.00870205,0.379674 -0.13,0.51l-2.44,2.38l-1.22532e-08,1.19325e-08c-0.117176,0.114109 -0.169692,0.27916 -0.14,0.44l0.57,3.36l-5.62581e-09,-3.27675e-08c0.0467268,0.27216 -0.136023,0.530669 -0.408183,0.577396c-0.10633,0.0182557 -0.215713,0.00162949 -0.311817,-0.0473961l-3,-1.58l2.58689e-08,1.45161e-08c-0.142856,-0.0801626 -0.317144,-0.0801626 -0.46,-2.90323e-08l-3,1.58l-1.31536e-08,8.45719e-09c-0.161423,0.103788 -0.368577,0.103788 -0.53,-1.69144e-08l1.51805e-08,1.12494e-08c-0.15283,-0.113254 -0.22993,-0.30215 -0.2,-0.49l0.58,-3.36l2.34568e-08,-1.53152e-07c0.0245791,-0.16048 -0.0272052,-0.32323 -0.14,-0.44l-2.44,-2.38l-3.86063e-08,-3.6275e-08c-0.138702,-0.130326 -0.18939,-0.32918 -0.13,-0.51l1.69541e-08,-5.2276e-08c0.0583269,-0.179845 0.213108,-0.311408 0.4,-0.34l3.38,-0.49l2.59395e-08,-3.76314e-09c0.160397,-0.0232694 0.29891,-0.124347 0.37,-0.27Z"></path> <path fill="none" stroke="#00AED9" stroke-linecap="round" stroke-linejoin="round" stroke-width="1" d="M78.63,69.25v-0.75"></path> <path fill="none" stroke="#00AED9" stroke-linecap="round" stroke-linejoin="round" stroke-width="1" d="M80.22,69.91l0.53,-0.53"></path> <path fill="none" stroke="#00AED9" stroke-linecap="round" stroke-linejoin="round" stroke-width="1" d="M80.88,71.5h0.75"></path> <path fill="none" stroke="#00AED9" stroke-linecap="round" stroke-linejoin="round" stroke-width="1" d="M80.22,73.09l0.53,0.53"></path> <path fill="none" stroke="#00AED9" stroke-linecap="round" stroke-linejoin="round" stroke-width="1" d="M78.63,73.75v0.75"></path> <path fill="none" stroke="#00AED9" stroke-linecap="round" stroke-linejoin="round" stroke-width="1" d="M77.03,73.09l-0.53,0.53"></path> <path fill="none" stroke="#00AED9" stroke-linecap="round" stroke-linejoin="round" stroke-width="1" d="M76.38,71.5h-0.75"></path> <path fill="none" stroke="#00AED9" stroke-linecap="round" stroke-linejoin="round" stroke-width="1" d="M77.03,69.91l-0.53,-0.53"></path> </g> </svg> 